<svg xmlns="http://www.w3.org/2000/svg" xmlns:xlink="http://www.w3.org/1999/xlink" width="276" height="622" viewbox="0 0 276 622"><defs><path id="char0" d="" edge="none"></path><path id="char5" d="M884 1076Q884 852 790 743T517 634Q335 634 242 743T149 1075Q149 1299 244 1408T517 1517Q698 1517 791 1407T884 1076ZM1575 1489L795 0H630L1410 1489H1575ZM2055 413Q2055 189 1960 80T1687 -29Q1506 -29 1413 81T1320 412Q1320 636 1414 745T1687 854Q1869 854 1962 745T2055 413ZM706 1076Q706 1248 662 1316T517 1384Q415 1384 371 1316T327 1075Q327 902 371 835T517 767Q617 767 661 834T706 1076ZM1877 413Q1877 585 1833 653T1688 721Q1586 721 1542 653T1498 412Q1498 239 1542 172T1688 104Q1788 104 1832 171T1877 413Z" edge="none"></path><path id="char13" d="M777 561H153V742H777V561Z" edge="none"></path><path id="char15" d="M860 1556L143 -304H-30L684 1556H860Z" edge="none"></path><path id="char16" d="M1167 745Q1167 344 1042 157T652 -31Q384 -31 261 159T137 743Q137 1140 262 1329T652 1519Q920 1519 1043 1327T1167 745ZM904 291Q939 372 951 481T964 745Q964 897 952 1009T903 1199Q868 1276 808 1315T652 1354Q558 1354 497 1315T399 1197Q365 1123 353 1004T340 743Q340 587 351 482T398 294Q431 216 491 175T652 134Q746 134 808 173T904 291Z" edge="none"></path><path id="char17" d="M1084 0H278V152H588V1150H278V1286Q341 1286 413 1296T522 1327Q568 1352 594 1390T625 1494H780V152H1084V0Z" edge="none"></path><path id="char18" d="M1169 0H161V209Q266 299 371 389T568 568Q760 754 831 863T902 1100Q902 1216 826 1281T612 1347Q521 1347 415 1315T208 1217H198V1427Q269 1462 387 1491T617 1520Q846 1520 976 1410T1106 1110Q1106 1025 1085 952T1021 812Q982 750 930 690T802 557Q695 452 581 354T368 171H1169V0Z" edge="none"></path><path id="char19" d="M1038 717Q1086 674 1117 609T1148 441Q1148 339 1111 254T1007 106Q932 36 831 3T608 -31Q484 -31 364 -2T167 63V272H182Q267 216 382 179T604 142Q667 142 738 163T853 225Q899 269 921 322T944 456Q944 536 919 588T848 671Q803 702 739 713T601 725H511V891H581Q733 891 823 954T914 1140Q914 1194 891 1234T827 1301Q784 1327 735 1337T624 1347Q529 1347 422 1313T220 1217H210V1426Q281 1461 399 1490T629 1520Q738 1520 821 1500T971 1436Q1043 1388 1080 1320T1117 1161Q1117 1037 1030 945T823 828V814Q871 806 933 781T1038 717Z" edge="none"></path><path id="char21" d="M1157 473Q1157 369 1119 274T1015 114Q943 44 844 7T613 -31Q491 -31 378 -6T187 56V267H201Q283 215 393 179T609 142Q680 142 746 162T865 232Q909 275 931 335T954 474Q954 551 928 604T854 689Q802 727 728 742T561 758Q473 758 392 746T251 722V1489H1147V1314H444V918Q487 922 532 924T610 926Q731 926 822 906T989 833Q1069 778 1113 691T1157 473Z" edge="none"></path><path id="char23" d="M1173 1266L499 0H285L1002 1314H154V1489H1173V1266Z" edge="none"></path><path id="char24" d="M1180 415Q1180 222 1030 94T651 -34Q409 -34 266 91T122 411Q122 535 194 635T397 795V801Q277 865 220 941T162 1131Q162 1299 300 1411T651 1523Q874 1523 1007 1416T1140 1144Q1140 1043 1077 946T892 793V787Q1032 727 1106 639T1180 415ZM943 1142Q943 1249 861 1312T650 1376Q524 1376 444 1316T363 1154Q363 1082 403 1030T526 936Q563 918 632 889T768 841Q867 907 905 978T943 1142ZM974 396Q974 488 934 543T775 655Q728 677 672 696T523 749Q433 700 379 616T324 426Q324 291 417 203T653 115Q799 115 886 190T974 396Z" edge="none"></path><path id="char38" d="M1151 1313H398V893H1045V717H398V0H200V1489H1151V1313Z" edge="none"></path><path id="char40" d="M1339 0H1141V729H398V0H200V1489H398V905H1141V1489H1339V0Z" edge="none"></path><path id="char44" d="M1142 0H200V1489H398V176H1142V0Z" edge="none"></path><path id="char46" d="M1336 0H1091L385 1332V0H200V1489H507L1151 273V1489H1336V0Z" edge="none"></path><path id="char47" d="M1310 1318Q1401 1218 1449 1073T1498 744Q1498 560 1449 415T1310 172Q1218 71 1093 20T806 -31Q649 -31 521 21T302 172Q212 271 164 415T115 744Q115 926 163 1070T303 1318Q391 1416 521 1468T806 1520Q966 1520 1093 1468T1310 1318ZM1292 744Q1292 1034 1162 1191T807 1349Q580 1349 451 1192T321 744Q321 451 453 296T807 140Q1029 140 1160 295T1292 744Z" edge="none"></path><path id="char52" d="M1262 1313H730V0H532V1313H0V1489H1262V1313Z" edge="none"></path><path id="char65" d="M1053 0H866V119Q841 102 799 72T716 23Q669 0 608 -15T465 -31Q314 -31 209 69T104 324Q104 451 158 529T314 653Q416 698 559 714T866 738V767Q866 831 844 873T779 939Q739 962 683 970T566 978Q492 978 401 959T213 902H203V1093Q258 1108 362 1126T567 1144Q685 1144 772 1125T924 1058Q987 1012 1020 939T1053 758V0ZM866 275V586Q780 581 664 571T479 542Q398 519 348 471T298 337Q298 241 356 193T533 144Q632 144 714 182T866 275Z" edge="none"></path><path id="char67" d="M1011 70Q917 25 833 0T653 -25Q532 -25 431 10T258 118Q185 190 145 300T105 557Q105 831 255 987T653 1143Q749 1143 841 1116T1011 1050V841H1001Q915 908 824 944T645 980Q485 980 393 873T300 557Q300 355 390 247T645 138Q702 138 761 153T867 192Q908 213 944 236T1001 277H1011V70Z" edge="none"></path><path id="char68" d="M1091 0H903V117Q822 47 734 8T543 -31Q343 -31 226 123T108 550Q108 692 148 803T258 992Q326 1068 416 1108T604 1148Q692 1148 760 1130T903 1072V1556H1091V0ZM903 275V916Q827 950 767 963T636 976Q478 976 390 866T302 554Q302 355 370 252T588 148Q668 148 750 183T903 275Z" edge="none"></path><path id="char69" d="M1120 539H297Q297 436 328 360T413 234Q465 186 536 162T694 138Q808 138 923 183T1088 273H1098V68Q1003 28 904 1T696 -26Q418 -26 262 124T106 552Q106 826 255 987T649 1148Q875 1148 997 1016T1120 641V539ZM937 683Q936 831 863 912T639 993Q488 993 399 904T297 683H937Z" edge="none"></path><path id="char72" d="M1119 0H931V636Q931 713 922 780T889 886Q864 928 817 948T695 969Q618 969 534 931T373 834V0H185V1556H373V993Q461 1066 555 1107T748 1148Q929 1148 1024 1039T1119 725V0Z" edge="none"></path><path id="char73" d="M387 1304H175V1499H387V1304ZM375 0H187V1117H375V0Z" edge="none"></path><path id="char76" d="M375 0H187V1556H375V0Z" edge="none"></path><path id="char77" d="M1815 0H1627V636Q1627 708 1621 775T1593 882Q1570 925 1527 947T1403 969Q1324 969 1245 930T1087 829Q1090 806 1092 776T1094 715V0H906V636Q906 710 900 776T872 883Q849 926 806 947T682 969Q605 969 528 931T373 834V0H185V1117H373V993Q461 1066 548 1107T735 1148Q849 1148 928 1100T1047 967Q1161 1063 1255 1105T1456 1148Q1640 1148 1727 1037T1815 725V0Z" edge="none"></path><path id="char78" d="M1119 0H931V636Q931 713 922 780T889 886Q864 928 817 948T695 969Q618 969 534 931T373 834V0H185V1117H373V993Q461 1066 555 1107T748 1148Q929 1148 1024 1039T1119 725V0Z" edge="none"></path><path id="char79" d="M1137 558Q1137 285 997 127T622 -31Q385 -31 246 127T106 558Q106 831 245 989T622 1148Q857 1148 997 990T1137 558ZM943 558Q943 775 858 880T622 986Q469 986 385 881T300 558Q300 348 385 240T622 131Q772 131 857 238T943 558Z" edge="none"></path><path id="char80" d="M1168 572Q1168 436 1129 324T1019 133Q953 59 864 19T674 -22Q587 -22 517 -3T373 56V-412H185V1117H373V1000Q448 1063 541 1105T741 1148Q943 1148 1055 996T1168 572ZM974 567Q974 769 905 869T693 969Q612 969 530 934T373 842V209Q453 173 510 160T641 147Q798 147 886 253T974 567Z" edge="none"></path><path id="char82" d="M882 912H872Q830 922 791 926T697 931Q610 931 529 893T373 793V0H185V1117H373V952Q485 1042 570 1079T745 1117Q794 1117 816 1115T882 1105V912Z" edge="none"></path><path id="char83" d="M983 322Q983 169 857 71T511 -27Q387 -27 284 2T110 67V278H120Q209 211 318 172T527 132Q651 132 721 172T791 298Q791 364 753 398Q715 432 607 456Q567 465 503 477T385 503Q238 542 177 617T115 803Q115 872 143 933T230 1042Q286 1089 372 1116T566 1144Q666 1144 768 1120T939 1060V859H929Q857 912 754 948T552 985Q449 985 378 946T307 828Q307 759 350 724Q392 689 486 667Q538 655 602 643T710 621Q841 591 912 518Q983 444 983 322Z" edge="none"></path><path id="char84" d="M765 10Q712 -4 650 -13T538 -22Q367 -22 278 70T189 365V959H62V1117H189V1438H377V1117H765V959H377V450Q377 362 381 313T409 220Q431 180 469 162T587 143Q633 143 683 156T755 179H765V10Z" edge="none"></path><path id="char85" d="M1111 0H923V124Q828 49 741 9T549 -31Q373 -31 275 76T177 392V1117H365V481Q365 396 373 336T407 232Q434 188 477 168T602 148Q675 148 761 186T923 283V1117H1111V0Z" edge="none"></path><path id="char88" d="M1152 0H915L598 429L279 0H60L496 557L64 1117H301L616 695L932 1117H1152L713 567L1152 0Z" edge="none"></path><path id="char89" d="M1151 1117L499 -412H298L506 54L61 1117H265L608 289L954 1117H1151Z" edge="none"></path></defs><path d="M 10.5 310.6094970703125 L 16.5 310.6094970703125 Q 20.5 310.6094970703125 20.5 306.6094970703125 L 20.5 65.639892578125 Q 20.5 61.639892578125 24.5 61.639892578125 L 30.5 61.639892578125" stroke="black" stroke-width="2" stroke-linejoin="round" stroke-linecap="round" fill="none"></path><path d="M 10.5 310.6094970703125 L 16.5 310.6094970703125 Q 20.5 310.6094970703125 20.5 314.6094970703125 L 20.5 372.7493896484375 Q 20.5 376.7493896484375 24.5 376.7493896484375 L 30.5 376.7493896484375" stroke="black" stroke-width="2" stroke-linejoin="round" stroke-linecap="round" fill="none"></path><path d="M 40.5 376.7493896484375 L 46.5 376.7493896484375 Q 50.5 376.7493896484375 50.5 372.7493896484375 L 50.5 181.419677734375 Q 50.5 177.419677734375 54.5 177.419677734375 L 60.5 177.419677734375" stroke="black" stroke-width="2" stroke-linejoin="round" stroke-linecap="round" fill="none"></path><path d="M 40.5 376.7493896484375 L 46.5 376.7493896484375 Q 50.5 376.7493896484375 50.5 380.7493896484375 L 50.5 422.3892822265625 Q 50.5 426.3892822265625 54.5 426.3892822265625 L 60.5 426.3892822265625" stroke="black" stroke-width="2" stroke-linejoin="round" stroke-linecap="round" fill="none"></path><path d="M 112.2041015625 426.3892822265625 L 118.2041015625 426.3892822265625 Q 122.2041015625 426.3892822265625 122.2041015625 422.3892822265625 L 122.2041015625 262.199462890625 Q 122.2041015625 258.199462890625 126.2041015625 258.199462890625 L 132.2041015625 258.199462890625" stroke="black" stroke-width="2" stroke-linejoin="round" stroke-linecap="round" fill="none"></path><path d="M 112.2041015625 426.3892822265625 L 118.2041015625 426.3892822265625 Q 122.2041015625 426.3892822265625 122.2041015625 422.3892822265625 L 122.2041015625 355.479248046875 Q 122.2041015625 351.479248046875 126.2041015625 351.479248046875 L 132.2041015625 351.479248046875" stroke="black" stroke-width="2" stroke-linejoin="round" stroke-linecap="round" fill="none"></path><path d="M 112.2041015625 426.3892822265625 L 118.2041015625 426.3892822265625 Q 122.2041015625 426.3892822265625 122.2041015625 430.3892822265625 L 122.2041015625 455.759033203125 Q 122.2041015625 459.759033203125 126.2041015625 459.759033203125 L 132.2041015625 459.759033203125" stroke="black" stroke-width="2" stroke-linejoin="round" stroke-linecap="round" fill="none"></path><path d="M 112.2041015625 426.3892822265625 L 118.2041015625 426.3892822265625 Q 122.2041015625 426.3892822265625 122.2041015625 430.3892822265625 L 122.2041015625 548.038818359375 Q 122.2041015625 552.038818359375 126.2041015625 552.038818359375 L 132.2041015625 552.038818359375" stroke="black" stroke-width="2" stroke-linejoin="round" stroke-linecap="round" fill="none"></path><path d="M 112.2041015625 426.3892822265625 L 118.2041015625 426.3892822265625 Q 122.2041015625 426.3892822265625 122.2041015625 430.3892822265625 L 122.2041015625 607.9488525390625 Q 122.2041015625 611.9488525390625 126.2041015625 611.9488525390625 L 132.2041015625 611.9488525390625" stroke="black" stroke-width="2" stroke-linejoin="round" stroke-linecap="round" fill="none"></path><g stroke="#808080" stroke-width="1" stroke-linecap="square" fill="#f8f8f8"><rect x="0.5" y="305.6094970703125" width="10" height="10"></rect><rect x="30.5" y="0.5" width="136.015625" height="122.27978515625"></rect></g><g stroke="black" stroke-width="1.5" stroke-linecap="round"><line x1="91.38661423849254" y1="51.075975178317314" x2="72.52781250000001" y2="61.96442883795503"></line><line x1="72.52781250000001" y1="61.96442883795503" x2="46.545812500000004" y2="46.96442883795503"></line><line x1="72.52781250000001" y1="61.96442883795503" x2="72.52781250000001" y2="91.96442883795504"></line><line x1="105.66709669900749" y1="51.09796474962217" x2="124.48781249999999" y2="61.96442883795503"></line><line x1="124.48781249999999" y1="61.96442883795503" x2="150.4698125" y2="46.96442883795503"></line><line x1="124.48781249999999" y1="61.96442883795503" x2="124.48781249999999" y2="91.96442883795504"></line></g><g transform="translate(91.21435546875,54.31620496100191)" fill="#0000ff"><g transform="scale(0.009521484375,-0.009521484375)"><use xlink:href="#char46" x="0"></use></g></g><g transform="translate(90.405029296875,24.316204961001908)" fill="black"><g transform="scale(0.009521484375,-0.009521484375)"><use xlink:href="#char44" x="0"></use><use xlink:href="#char73" x="1140"></use></g></g><line x1="105.14830738020187" y1="43.525457942944946" x2="110.76430738020188" y2="43.525457942944946" stroke="#0000ff" stroke-width="1.5600000000000003" stroke-linecap="round"></line><g stroke="black" stroke-width="1.5600000000000003" stroke-linecap="round"><line x1="109.3253626706814" y1="12.00513415032622" x2="114.94136267068141" y2="12.00513415032622"></line><line x1="112.13336267068141" y1="9.197134150326221" x2="112.13336267068141" y2="14.81313415032622"></line></g><g transform="translate(35.5,106.040283203125)" fill="black"><g transform="scale(0.0048828125,-0.0048828125)"><use xlink:href="#char44" x="0"></use><use xlink:href="#char73" x="1140"></use><use xlink:href="#char84" x="1702"></use><use xlink:href="#char72" x="2509"></use><use xlink:href="#char73" x="3805"></use><use xlink:href="#char85" x="4367"></use><use xlink:href="#char77" x="5663"></use><use xlink:href="#char0" x="7655"></use><use xlink:href="#char68" x="8375"></use><use xlink:href="#char73" x="9651"></use><use xlink:href="#char73" x="10213"></use><use xlink:href="#char83" x="10775"></use><use xlink:href="#char79" x="11842"></use><use xlink:href="#char80" x="13085"></use><use xlink:href="#char82" x="14361"></use><use xlink:href="#char79" x="15235"></use><use xlink:href="#char80" x="16478"></use><use xlink:href="#char89" x="17754"></use><use xlink:href="#char76" x="18966"></use><use xlink:href="#char65" x="19528"></use><use xlink:href="#char77" x="20758"></use><use xlink:href="#char73" x="22750"></use><use xlink:href="#char68" x="23312"></use><use xlink:href="#char69" x="24588"></use></g></g><g transform="translate(79.24755859375,117.77978515625)" fill="black"><g transform="scale(0.0048828125,-0.0048828125)"><use xlink:href="#char17" x="0"></use><use xlink:href="#char0" x="1302"></use><use xlink:href="#char77" x="2022"></use><use xlink:href="#char79" x="4014"></use><use xlink:href="#char76" x="5257"></use><use xlink:href="#char15" x="5819"></use><use xlink:href="#char44" x="6749"></use></g></g><g stroke="#808080" stroke-width="1" stroke-linecap="square" fill="#f8f8f8"><rect x="30.5" y="371.7493896484375" width="10" height="10"></rect><rect x="60.5" y="132.77978515625" width="62" height="89.27978515625"></rect></g><g stroke="black" stroke-width="1.5" stroke-linecap="round"><line x1="76.5" y1="190.98848876953127" x2="67.3" y2="162.38848876953125"></line><line x1="67.3" y1="162.38848876953125" x2="84.02769221812169" y2="150.22289442907913"></line><line x1="98.97771185213304" y1="150.22682466199166" x2="115.7" y2="162.38848876953125"></line><line x1="115.7" y1="162.38848876953125" x2="106.5" y2="190.98848876953127"></line><line x1="106.5" y1="190.98848876953127" x2="76.5" y2="190.98848876953127"></line></g><g transform="translate(83.82568359375,152.14026489257813)" fill="#ff0000"><g transform="scale(0.009521484375,-0.009521484375)"><use xlink:href="#char47" x="0"></use></g></g><g transform="translate(81.7880859375,205.320068359375)" fill="black"><g transform="scale(0.0048828125,-0.0048828125)"><use xlink:href="#char52" x="0"></use><use xlink:href="#char40" x="1262"></use><use xlink:href="#char38" x="2801"></use></g></g><g transform="translate(82.8720703125,217.0595703125)" fill="black"><g transform="scale(0.0048828125,-0.0048828125)"><use xlink:href="#char17" x="0"></use><use xlink:href="#char15" x="1302"></use><use xlink:href="#char24" x="2232"></use></g></g><rect x="60.5" y="411.7493896484375" width="51.7041015625" height="29.27978515625" stroke="#808080" stroke-width="1" stroke-linecap="square" fill="#f8f8f8"></rect><g transform="translate(65.5,424.2896728515625)" fill="black"><g transform="scale(0.0048828125,-0.0048828125)"><use xlink:href="#char72" x="0"></use><use xlink:href="#char69" x="1296"></use><use xlink:href="#char88" x="2516"></use><use xlink:href="#char65" x="3728"></use><use xlink:href="#char78" x="4958"></use><use xlink:href="#char69" x="6254"></use><use xlink:href="#char83" x="7474"></use></g></g><g transform="translate(77.72412109375,436.0291748046875)" fill="black"><g transform="scale(0.0048828125,-0.0048828125)"><use xlink:href="#char23" x="0"></use><use xlink:href="#char15" x="1302"></use><use xlink:href="#char24" x="2232"></use></g></g><rect x="132.2041015625" y="232.0595703125" width="143" height="52.27978515625" stroke="#808080" stroke-width="1" stroke-linecap="square" fill="#f8f8f8"></rect><g stroke="black" stroke-width="1.5" stroke-linecap="round"><line x1="138.7521015625" y1="253.5595703125" x2="164.7321015625" y2="238.5595703125"></line><line x1="164.7321015625" y1="238.5595703125" x2="190.7141015625" y2="253.5595703125"></line><line x1="190.7141015625" y1="253.5595703125" x2="216.6941015625" y2="238.5595703125"></line><line x1="216.6941015625" y1="238.5595703125" x2="242.67610156249998" y2="253.5595703125"></line><line x1="242.67610156249998" y1="253.5595703125" x2="268.6561015625" y2="238.5595703125"></line></g><g transform="translate(180.0224609375,267.599853515625)" fill="black"><g transform="scale(0.0048828125,-0.0048828125)"><use xlink:href="#char78" x="0"></use><use xlink:href="#char13" x="1296"></use><use xlink:href="#char72" x="2226"></use><use xlink:href="#char69" x="3522"></use><use xlink:href="#char88" x="4742"></use><use xlink:href="#char65" x="5954"></use><use xlink:href="#char78" x="7184"></use><use xlink:href="#char69" x="8480"></use></g></g><g transform="translate(178.064453125,279.33935546875)" fill="black"><g transform="scale(0.0048828125,-0.0048828125)"><use xlink:href="#char21" x="0"></use><use xlink:href="#char16" x="1302"></use><use xlink:href="#char0" x="2604"></use><use xlink:href="#char13" x="3324"></use><use xlink:href="#char0" x="4254"></use><use xlink:href="#char23" x="4974"></use><use xlink:href="#char16" x="6276"></use><use xlink:href="#char0" x="7578"></use><use xlink:href="#char5" x="8298"></use></g></g><rect x="132.2041015625" y="294.33935546875" width="110.5126953125" height="114.27978515625" stroke="#808080" stroke-width="1" stroke-linecap="square" fill="#f8f8f8"></rect><g stroke="black" stroke-width="1.5" stroke-linecap="round"><line x1="187.46044921875" y1="331.25635546875003" x2="163.19044921875002" y2="348.89035546875004"></line><line x1="163.19044921875002" y1="348.89035546875004" x2="172.46044921875" y2="377.42235546874997"></line><line x1="172.46044921875" y1="377.42235546874997" x2="202.46044921875" y2="377.42235546874997"></line><line x1="202.46044921875" y1="377.42235546874997" x2="211.73044921874998" y2="348.89035546875004"></line><line x1="211.73044921874998" y1="348.89035546875004" x2="187.46044921875" y2="331.25635546875003"></line><line x1="187.46044921875" y1="331.25635546875003" x2="187.46044921875" y2="301.25635546875003"></line></g><g transform="translate(137.2041015625,391.879638671875)" fill="black"><g transform="scale(0.0048828125,-0.0048828125)"><use xlink:href="#char77" x="0"></use><use xlink:href="#char69" x="1992"></use><use xlink:href="#char84" x="3212"></use><use xlink:href="#char72" x="4019"></use><use xlink:href="#char89" x="5315"></use><use xlink:href="#char76" x="6527"></use><use xlink:href="#char67" x="7089"></use><use xlink:href="#char89" x="8156"></use><use xlink:href="#char67" x="9368"></use><use xlink:href="#char76" x="10435"></use><use xlink:href="#char79" x="10997"></use><use xlink:href="#char80" x="12240"></use><use xlink:href="#char69" x="13516"></use><use xlink:href="#char78" x="14736"></use><use xlink:href="#char84" x="16032"></use><use xlink:href="#char65" x="16839"></use><use xlink:href="#char78" x="18069"></use><use xlink:href="#char69" x="19365"></use></g></g><g transform="translate(161.82080078125,403.619140625)" fill="black"><g transform="scale(0.0048828125,-0.0048828125)"><use xlink:href="#char17" x="0"></use><use xlink:href="#char16" x="1302"></use><use xlink:href="#char0" x="2604"></use><use xlink:href="#char13" x="3324"></use><use xlink:href="#char0" x="4254"></use><use xlink:href="#char18" x="4974"></use><use xlink:href="#char16" x="6276"></use><use xlink:href="#char0" x="7578"></use><use xlink:href="#char5" x="8298"></use></g></g><rect x="132.2041015625" y="418.619140625" width="117" height="82.27978515625" stroke="#808080" stroke-width="1" stroke-linecap="square" fill="#f8f8f8"></rect><g stroke="black" stroke-width="1.5" stroke-linecap="round"><line x1="138.7421015625" y1="425.119140625" x2="164.72410156249998" y2="440.119140625"></line><line x1="164.72410156249998" y1="440.119140625" x2="190.7041015625" y2="425.119140625"></line><line x1="190.7041015625" y1="425.119140625" x2="216.6861015625" y2="440.119140625"></line><line x1="216.6861015625" y1="440.119140625" x2="242.6661015625" y2="425.119140625"></line><line x1="164.72410156249998" y1="440.119140625" x2="164.72410156249998" y2="470.119140625"></line></g><g transform="translate(147.57421875,484.159423828125)" fill="black"><g transform="scale(0.0048828125,-0.0048828125)"><use xlink:href="#char18" x="0"></use><use xlink:href="#char13" x="1302"></use><use xlink:href="#char77" x="2232"></use><use xlink:href="#char69" x="4224"></use><use xlink:href="#char84" x="5444"></use><use xlink:href="#char72" x="6251"></use><use xlink:href="#char89" x="7547"></use><use xlink:href="#char76" x="8759"></use><use xlink:href="#char80" x="9321"></use><use xlink:href="#char69" x="10597"></use><use xlink:href="#char78" x="11817"></use><use xlink:href="#char84" x="13113"></use><use xlink:href="#char65" x="13920"></use><use xlink:href="#char78" x="15150"></use><use xlink:href="#char69" x="16446"></use></g></g><g transform="translate(171.421875,495.89892578125)" fill="black"><g transform="scale(0.0048828125,-0.0048828125)"><use xlink:href="#char17" x="0"></use><use xlink:href="#char0" x="1302"></use><use xlink:href="#char13" x="2022"></use><use xlink:href="#char0" x="2952"></use><use xlink:href="#char21" x="3672"></use><use xlink:href="#char0" x="4974"></use><use xlink:href="#char5" x="5694"></use></g></g><rect x="132.2041015625" y="510.89892578125" width="117" height="82.27978515625" stroke="#808080" stroke-width="1" stroke-linecap="square" fill="#f8f8f8"></rect><g stroke="black" stroke-width="1.5" stroke-linecap="round"><line x1="138.7421015625" y1="547.39892578125" x2="164.72410156249998" y2="562.39892578125"></line><line x1="164.72410156249998" y1="562.39892578125" x2="190.7041015625" y2="547.39892578125"></line><line x1="190.7041015625" y1="547.39892578125" x2="216.6861015625" y2="562.39892578125"></line><line x1="216.6861015625" y1="562.39892578125" x2="242.6661015625" y2="547.39892578125"></line><line x1="190.7041015625" y1="547.39892578125" x2="190.7041015625" y2="517.39892578125"></line></g><g transform="translate(147.57421875,576.439208984375)" fill="black"><g transform="scale(0.0048828125,-0.0048828125)"><use xlink:href="#char19" x="0"></use><use xlink:href="#char13" x="1302"></use><use xlink:href="#char77" x="2232"></use><use xlink:href="#char69" x="4224"></use><use xlink:href="#char84" x="5444"></use><use xlink:href="#char72" x="6251"></use><use xlink:href="#char89" x="7547"></use><use xlink:href="#char76" x="8759"></use><use xlink:href="#char80" x="9321"></use><use xlink:href="#char69" x="10597"></use><use xlink:href="#char78" x="11817"></use><use xlink:href="#char84" x="13113"></use><use xlink:href="#char65" x="13920"></use><use xlink:href="#char78" x="15150"></use><use xlink:href="#char69" x="16446"></use></g></g><g transform="translate(171.421875,588.1787109375)" fill="black"><g transform="scale(0.0048828125,-0.0048828125)"><use xlink:href="#char17" x="0"></use><use xlink:href="#char0" x="1302"></use><use xlink:href="#char13" x="2022"></use><use xlink:href="#char0" x="2952"></use><use xlink:href="#char21" x="3672"></use><use xlink:href="#char0" x="4974"></use><use xlink:href="#char5" x="5694"></use></g></g><rect x="132.2041015625" y="603.1787109375" width="79.2626953125" height="17.540283203125" stroke="#808080" stroke-width="1" stroke-linecap="square" fill="#f8f8f8"></rect><g transform="translate(137.2041015625,615.718994140625)" fill="black"><g transform="scale(0.0048828125,-0.0048828125)"><use xlink:href="#char79" x="0"></use><use xlink:href="#char84" x="1243"></use><use xlink:href="#char72" x="2050"></use><use xlink:href="#char69" x="3346"></use><use xlink:href="#char82" x="4566"></use><use xlink:href="#char0" x="5440"></use><use xlink:href="#char73" x="6160"></use><use xlink:href="#char83" x="6722"></use><use xlink:href="#char79" x="7789"></use><use xlink:href="#char77" x="9032"></use><use xlink:href="#char69" x="11024"></use><use xlink:href="#char82" x="12244"></use><use xlink:href="#char83" x="13118"></use></g></g></svg>