<?xml version="1.0" encoding="UTF-8" standalone="no"?>
<svg
   xmlns:dc="http://purl.org/dc/elements/1.1/"
   xmlns:cc="http://creativecommons.org/ns#"
   xmlns:rdf="http://www.w3.org/1999/02/22-rdf-syntax-ns#"
   xmlns:svg="http://www.w3.org/2000/svg"
   xmlns="http://www.w3.org/2000/svg"
   xmlns:sodipodi="http://sodipodi.sourceforge.net/DTD/sodipodi-0.dtd"
   xmlns:inkscape="http://www.inkscape.org/namespaces/inkscape"
   inkscape:version="1.0beta1 (fe3e306, 2019-09-17)"
   sodipodi:docname="CommandReject.svg"
   id="svg3121"
   version="1.1"
   viewBox="0 0 20 20"
   class="svg-icon">
  <metadata
     id="metadata3127">
    <rdf:RDF>
      <cc:Work
         rdf:about="">
        <dc:format>image/svg+xml</dc:format>
        <dc:type
           rdf:resource="http://purl.org/dc/dcmitype/StillImage" />
      </cc:Work>
    </rdf:RDF>
  </metadata>
  <defs
     id="defs3125" />
  <sodipodi:namedview
     inkscape:current-layer="svg3121"
     inkscape:window-maximized="0"
     inkscape:window-y="23"
     inkscape:window-x="44"
     inkscape:cy="10"
     inkscape:cx="0.84558824"
     inkscape:zoom="13.6"
     showgrid="false"
     id="namedview3123"
     inkscape:window-height="480"
     inkscape:window-width="776"
     inkscape:pageshadow="2"
     inkscape:pageopacity="0"
     guidetolerance="10"
     gridtolerance="10"
     objecttolerance="10"
     borderopacity="1"
     inkscape:document-rotation="0"
     bordercolor="#666666"
     pagecolor="#ffffff" />
  <path
     inkscape:connector-curvature="0"
     id="path3119"
     d="m 10.185,1.417 c -4.741,0 -8.583,3.842 -8.583,8.583 0,4.74 3.842,8.582 8.583,8.582 4.741,0 8.583,-3.842 8.583,-8.582 0,-4.741 -3.842,-8.583 -8.583,-8.583 m 0,16.263 C 5.95,17.68 2.506,14.235 2.506,10 c 0,-4.235 3.444,-7.679 7.679,-7.679 4.235,0 7.679,3.444 7.679,7.679 0,4.234 -3.444,7.68 -7.679,7.68 M 10.824,10 13.666,7.156 c 0.178,-0.176 0.178,-0.46 0,-0.637 -0.177,-0.178 -0.461,-0.178 -0.637,0 L 10.185,9.36 7.341,6.52 c -0.176,-0.178 -0.46,-0.178 -0.637,0 -0.178,0.176 -0.178,0.461 0,0.637 L 9.546,10 6.705,12.844 c -0.178,0.176 -0.178,0.461 0,0.637 0.178,0.178 0.459,0.178 0.637,0 l 2.844,-2.841 2.844,2.841 c 0.178,0.178 0.459,0.178 0.637,0 0.178,-0.176 0.178,-0.461 0,-0.637 z" />
</svg>
