<?xml version="1.0" encoding="UTF-8" standalone="no"?>
<svg
   xmlns:dc="http://purl.org/dc/elements/1.1/"
   xmlns:cc="http://creativecommons.org/ns#"
   xmlns:rdf="http://www.w3.org/1999/02/22-rdf-syntax-ns#"
   xmlns:svg="http://www.w3.org/2000/svg"
   xmlns="http://www.w3.org/2000/svg"
   xmlns:sodipodi="http://sodipodi.sourceforge.net/DTD/sodipodi-0.dtd"
   xmlns:inkscape="http://www.inkscape.org/namespaces/inkscape"
   inkscape:version="1.0beta1 (fe3e306, 2019-09-17)"
   sodipodi:docname="CommandRedo.svg"
   id="svg7177"
   version="1.1"
   viewBox="0 0 20 20"
   class="svg-icon">
  <metadata
     id="metadata7183">
    <rdf:RDF>
      <cc:Work
         rdf:about="">
        <dc:format>image/svg+xml</dc:format>
        <dc:type
           rdf:resource="http://purl.org/dc/dcmitype/StillImage" />
        <dc:title></dc:title>
      </cc:Work>
    </rdf:RDF>
  </metadata>
  <defs
     id="defs7181" />
  <sodipodi:namedview
     inkscape:current-layer="svg7177"
     inkscape:window-maximized="0"
     inkscape:window-y="23"
     inkscape:window-x="44"
     inkscape:cy="10"
     inkscape:cx="0.84558824"
     inkscape:zoom="13.6"
     showgrid="false"
     id="namedview7179"
     inkscape:window-height="689"
     inkscape:window-width="1272"
     inkscape:pageshadow="2"
     inkscape:pageopacity="0"
     guidetolerance="10"
     gridtolerance="10"
     objecttolerance="10"
     borderopacity="1"
     inkscape:document-rotation="0"
     bordercolor="#666666"
     pagecolor="#ffffff" />
  <path
     inkscape:connector-curvature="0"
     style="fill:#000000;fill-opacity:1"
     id="path7175"
     d="m 16.745806,6.572 c -0.008,0.072 -0.048,0.123 -0.082,0.187 -0.036,0.07 -0.06,0.137 -0.12,0.187 -0.014,0.011 -0.014,0.032 -0.028,0.042 -0.048,0.034 -0.108,0.018 -0.162,0.035 -0.057,0.019 -0.1,0.066 -0.164,0.066 -0.004,0 -0.01,0 -0.015,0 l -2.934,-0.074 c -0.317,-0.007 -0.568,-0.271 -0.56,-0.589 0.008,-0.313 0.264,-0.561 0.575,-0.561 0.005,0 0.01,0 0.015,0 l 1.655,0.042 C 12.779806,3.789 9.3218061,3.273 6.9548061,4.9 c -2.775,1.912 -3.48,5.726 -1.57,8.501 1.912,2.781 5.7289999,3.486 8.5069999,1.572 0.259,-0.18 0.618,-0.119 0.799,0.146 0.18,0.262 0.114,0.621 -0.148,0.801 -1.254,0.863 -2.687,1.279 -4.106,1.279 -2.3129999,0 -4.5909999,-1.1 -6.0009999,-3.146 -2.268,-3.297 -1.432,-7.829 1.867,-10.101 2.781,-1.913 6.8159999,-1.36 9.3509999,1.058 l 0.037,-1.443 c 0.006,-0.315 0.273,-0.498 0.589,-0.56 0.318,0.008 0.569,0.272 0.56,0.59 l -0.075,2.932 c 0.001,0.018 -0.016,0.027 -0.019,0.043 z"
     fill="none" />
</svg>
