<?xml version="1.0" encoding="UTF-8" standalone="no"?>
<svg
   xmlns:dc="http://purl.org/dc/elements/1.1/"
   xmlns:cc="http://creativecommons.org/ns#"
   xmlns:rdf="http://www.w3.org/1999/02/22-rdf-syntax-ns#"
   xmlns:svg="http://www.w3.org/2000/svg"
   xmlns="http://www.w3.org/2000/svg"
   xmlns:sodipodi="http://sodipodi.sourceforge.net/DTD/sodipodi-0.dtd"
   xmlns:inkscape="http://www.inkscape.org/namespaces/inkscape"
   inkscape:version="1.0beta1 (fe3e306, 2019-09-17)"
   sodipodi:docname="CommandUndo.svg"
   id="svg7177"
   version="1.1"
   viewBox="0 0 20 20"
   class="svg-icon">
  <metadata
     id="metadata7183">
    <rdf:RDF>
      <cc:Work
         rdf:about="">
        <dc:format>image/svg+xml</dc:format>
        <dc:type
           rdf:resource="http://purl.org/dc/dcmitype/StillImage" />
      </cc:Work>
    </rdf:RDF>
  </metadata>
  <defs
     id="defs7181" />
  <sodipodi:namedview
     inkscape:current-layer="svg7177"
     inkscape:window-maximized="0"
     inkscape:window-y="23"
     inkscape:window-x="44"
     inkscape:cy="10"
     inkscape:cx="0.84558824"
     inkscape:zoom="13.6"
     showgrid="false"
     id="namedview7179"
     inkscape:window-height="689"
     inkscape:window-width="1272"
     inkscape:pageshadow="2"
     inkscape:pageopacity="0"
     guidetolerance="10"
     gridtolerance="10"
     objecttolerance="10"
     borderopacity="1"
     inkscape:document-rotation="0"
     bordercolor="#666666"
     pagecolor="#ffffff" />
  <path
     style="fill:#000000;fill-opacity:1"
     id="path7175"
     d="M3.254,6.572c0.008,0.072,0.048,0.123,0.082,0.187c0.036,0.07,0.06,0.137,0.12,0.187C3.47,6.957,3.47,6.978,3.484,6.988c0.048,0.034,0.108,0.018,0.162,0.035c0.057,0.019,0.1,0.066,0.164,0.066c0.004,0,0.01,0,0.015,0l2.934-0.074c0.317-0.007,0.568-0.271,0.56-0.589C7.311,6.113,7.055,5.865,6.744,5.865c-0.005,0-0.01,0-0.015,0L5.074,5.907c2.146-2.118,5.604-2.634,7.971-1.007c2.775,1.912,3.48,5.726,1.57,8.501c-1.912,2.781-5.729,3.486-8.507,1.572c-0.259-0.18-0.618-0.119-0.799,0.146c-0.18,0.262-0.114,0.621,0.148,0.801c1.254,0.863,2.687,1.279,4.106,1.279c2.313,0,4.591-1.1,6.001-3.146c2.268-3.297,1.432-7.829-1.867-10.101c-2.781-1.913-6.816-1.36-9.351,1.058L4.309,3.567C4.303,3.252,4.036,3.069,3.72,3.007C3.402,3.015,3.151,3.279,3.16,3.597l0.075,2.932C3.234,6.547,3.251,6.556,3.254,6.572z"
     fill="none" />
</svg>
