<?xml version="1.0" encoding="UTF-8" standalone="no"?>
<svg
   xmlns:dc="http://purl.org/dc/elements/1.1/"
   xmlns:cc="http://creativecommons.org/ns#"
   xmlns:rdf="http://www.w3.org/1999/02/22-rdf-syntax-ns#"
   xmlns:svg="http://www.w3.org/2000/svg"
   xmlns="http://www.w3.org/2000/svg"
   xmlns:sodipodi="http://sodipodi.sourceforge.net/DTD/sodipodi-0.dtd"
   xmlns:inkscape="http://www.inkscape.org/namespaces/inkscape"
   inkscape:version="1.0beta1 (fe3e306, 2019-09-17)"
   sodipodi:docname="CommandViewCard.svg"
   id="svg4834"
   version="1.1"
   viewBox="0 0 20 20"
   class="svg-icon">
  <metadata
     id="metadata4840">
    <rdf:RDF>
      <cc:Work
         rdf:about="">
        <dc:format>image/svg+xml</dc:format>
        <dc:type
           rdf:resource="http://purl.org/dc/dcmitype/StillImage" />
      </cc:Work>
    </rdf:RDF>
  </metadata>
  <defs
     id="defs4838" />
  <sodipodi:namedview
     inkscape:current-layer="svg4834"
     inkscape:window-maximized="0"
     inkscape:window-y="23"
     inkscape:window-x="44"
     inkscape:cy="10"
     inkscape:cx="0.84558824"
     inkscape:zoom="13.6"
     showgrid="false"
     id="namedview4836"
     inkscape:window-height="480"
     inkscape:window-width="776"
     inkscape:pageshadow="2"
     inkscape:pageopacity="0"
     guidetolerance="10"
     gridtolerance="10"
     objecttolerance="10"
     borderopacity="1"
     inkscape:document-rotation="0"
     bordercolor="#666666"
     pagecolor="#ffffff" />
  <path
     inkscape:connector-curvature="0"
     id="path4832"
     d="m 10,1.75 c -4.557,0 -8.25,3.693 -8.25,8.25 0,4.557 3.693,8.25 8.25,8.25 4.557,0 8.25,-3.693 8.25,-8.25 0,-4.557 -3.693,-8.25 -8.25,-8.25 m 0,15.632 C 5.929,17.382 2.619,14.07 2.619,10 2.619,5.929 5.93,2.619 10,2.619 c 4.07,0 7.381,3.311 7.381,7.381 0,4.07 -3.311,7.382 -7.381,7.382 M 7.612,10.869 c -0.838,0 -1.52,0.681 -1.52,1.519 0,0.838 0.682,1.521 1.52,1.521 0.838,0 1.52,-0.683 1.52,-1.521 0,-0.838 -0.682,-1.519 -1.52,-1.519 m 0,2.17 c -0.359,0 -0.651,-0.293 -0.651,-0.651 0,-0.357 0.292,-0.65 0.651,-0.65 0.358,0 0.651,0.293 0.651,0.65 0,0.358 -0.293,0.651 -0.651,0.651 M 7.629,6.11 c -0.838,0 -1.52,0.682 -1.52,1.52 0,0.838 0.682,1.521 1.52,1.521 C 8.467,9.151 9.15,8.469 9.15,7.63 9.15,6.792 8.468,6.11 7.629,6.11 m 0,2.171 C 7.271,8.281 6.978,7.989 6.978,7.63 6.978,7.272 7.27,6.979 7.629,6.979 7.988,6.979 8.28,7.271 8.28,7.63 8.281,7.988 7.988,8.281 7.629,8.281 m 4.746,2.574 c -0.838,0 -1.521,0.682 -1.521,1.52 0,0.838 0.683,1.52 1.521,1.52 0.838,0 1.52,-0.682 1.52,-1.52 0,-0.838 -0.682,-1.52 -1.52,-1.52 m 0,2.171 c -0.358,0 -0.652,-0.294 -0.652,-0.651 0,-0.358 0.294,-0.652 0.652,-0.652 0.357,0 0.65,0.294 0.65,0.652 0,0.357 -0.293,0.651 -0.65,0.651 m 0.014,-6.934 c -0.839,0 -1.52,0.682 -1.52,1.52 0,0.838 0.681,1.52 1.52,1.52 0.838,0 1.52,-0.681 1.52,-1.52 -0.001,-0.838 -0.682,-1.52 -1.52,-1.52 m 0,2.171 c -0.36,0 -0.652,-0.293 -0.652,-0.651 0,-0.359 0.292,-0.651 0.652,-0.651 0.357,0 0.65,0.292 0.65,0.651 0,0.358 -0.293,0.651 -0.65,0.651" />
</svg>
