<?xml version="1.0" encoding="UTF-8" standalone="no"?>
<svg
   xmlns:dc="http://purl.org/dc/elements/1.1/"
   xmlns:cc="http://creativecommons.org/ns#"
   xmlns:rdf="http://www.w3.org/1999/02/22-rdf-syntax-ns#"
   xmlns:svg="http://www.w3.org/2000/svg"
   xmlns="http://www.w3.org/2000/svg"
   xmlns:sodipodi="http://sodipodi.sourceforge.net/DTD/sodipodi-0.dtd"
   xmlns:inkscape="http://www.inkscape.org/namespaces/inkscape"
   inkscape:version="1.0beta1 (fe3e306, 2019-09-17)"
   sodipodi:docname="CommandSetup.svg"
   id="svg3692"
   version="1.1"
   viewBox="0 0 20 20"
   class="svg-icon">
  <metadata
     id="metadata3698">
    <rdf:RDF>
      <cc:Work
         rdf:about="">
        <dc:format>image/svg+xml</dc:format>
        <dc:type
           rdf:resource="http://purl.org/dc/dcmitype/StillImage" />
      </cc:Work>
    </rdf:RDF>
  </metadata>
  <defs
     id="defs3696" />
  <sodipodi:namedview
     inkscape:current-layer="svg3692"
     inkscape:window-maximized="0"
     inkscape:window-y="23"
     inkscape:window-x="44"
     inkscape:cy="10"
     inkscape:cx="0.84558824"
     inkscape:zoom="13.6"
     showgrid="false"
     id="namedview3694"
     inkscape:window-height="480"
     inkscape:window-width="776"
     inkscape:pageshadow="2"
     inkscape:pageopacity="0"
     guidetolerance="10"
     gridtolerance="10"
     objecttolerance="10"
     borderopacity="1"
     inkscape:document-rotation="0"
     bordercolor="#666666"
     pagecolor="#ffffff" />
  <path
     inkscape:connector-curvature="0"
     id="path3690"
     d="M 17.498,11.697 C 17.045,11.244 16.794,10.642 16.794,10 c 0,-0.642 0.251,-1.244 0.704,-1.697 0.069,-0.071 0.15,-0.141 0.257,-0.22 C 17.882,7.986 17.936,7.821 17.892,7.666 17.728,7.108 17.504,6.573 17.23,6.069 17.155,5.928 16.999,5.849 16.839,5.87 c -0.13,0.02 -0.238,0.027 -0.336,0.027 -1.325,0 -2.401,-1.076 -2.401,-2.4 0,-0.099 0.008,-0.207 0.027,-0.336 C 14.15,3.003 14.07,2.845 13.93,2.77 13.427,2.496 12.891,2.272 12.333,2.108 12.179,2.064 12.013,2.118 11.917,2.245 11.838,2.351 11.769,2.433 11.697,2.502 11.244,2.956 10.643,3.207 10,3.207 9.358,3.207 8.756,2.957 8.303,2.503 8.232,2.434 8.162,2.353 8.083,2.246 7.987,2.119 7.821,2.065 7.667,2.109 7.109,2.275 6.571,2.497 6.07,2.771 5.929,2.846 5.85,3.004 5.871,3.162 c 0.02,0.129 0.027,0.237 0.027,0.336 0,1.325 -1.076,2.4 -2.401,2.4 C 3.399,5.898 3.291,5.891 3.162,5.871 3.001,5.851 2.845,5.929 2.77,6.07 2.496,6.572 2.274,7.109 2.108,7.667 c -0.044,0.154 0.01,0.32 0.137,0.417 0.106,0.079 0.187,0.148 0.256,0.22 0.938,0.936 0.938,2.458 0,3.394 -0.069,0.072 -0.15,0.141 -0.256,0.221 -0.127,0.096 -0.181,0.262 -0.137,0.416 0.166,0.557 0.388,1.096 0.662,1.596 0.075,0.143 0.231,0.221 0.392,0.199 0.129,-0.02 0.237,-0.027 0.335,-0.027 1.325,0 2.401,1.076 2.401,2.402 0,0.098 -0.007,0.205 -0.027,0.334 -0.021,0.157 0.058,0.315 0.199,0.391 0.501,0.273 1.04,0.496 1.597,0.66 0.154,0.047 0.32,-0.008 0.417,-0.137 0.079,-0.105 0.148,-0.186 0.22,-0.256 0.454,-0.453 1.055,-0.703 1.697,-0.703 0.643,0 1.244,0.25 1.697,0.703 0.071,0.07 0.141,0.15 0.22,0.256 0.073,0.098 0.188,0.152 0.307,0.152 0.036,0 0.073,-0.004 0.109,-0.016 0.558,-0.164 1.096,-0.387 1.597,-0.66 0.141,-0.076 0.22,-0.234 0.199,-0.393 -0.02,-0.129 -0.027,-0.236 -0.027,-0.334 0,-1.326 1.076,-2.402 2.401,-2.402 0.098,0 0.206,0.008 0.336,0.027 0.159,0.021 0.315,-0.057 0.391,-0.199 0.274,-0.5 0.496,-1.039 0.662,-1.596 0.044,-0.154 -0.01,-0.32 -0.137,-0.416 -0.108,-0.078 -0.189,-0.146 -0.258,-0.219 m -0.827,1.637 c -0.059,-0.002 -0.114,-0.002 -0.168,-0.002 -1.749,0 -3.173,1.422 -3.173,3.172 0,0.053 0.002,0.109 0.004,0.166 -0.312,0.158 -0.64,0.295 -0.976,0.406 -0.039,-0.045 -0.077,-0.086 -0.115,-0.123 -0.601,-0.6 -1.396,-0.93 -2.243,-0.93 -0.847,0 -1.643,0.33 -2.243,0.93 C 7.718,16.99 7.68,17.031 7.641,17.076 7.305,16.965 6.977,16.828 6.665,16.67 c 0.002,-0.057 0.004,-0.113 0.004,-0.166 0,-1.75 -1.423,-3.172 -3.172,-3.172 -0.054,0 -0.11,0 -0.168,0.002 C 3.171,13.022 3.036,12.695 2.924,12.359 2.968,12.32 3.009,12.281 3.048,12.244 4.284,11.008 4.284,8.994 3.048,7.758 3.009,7.719 2.969,7.68 2.924,7.642 3.036,7.306 3.171,6.978 3.329,6.666 3.387,6.668 3.443,6.67 3.497,6.67 5.247,6.67 6.669,5.247 6.669,3.498 6.669,3.444 6.667,3.388 6.665,3.33 6.977,3.172 7.305,3.037 7.641,2.925 7.68,2.969 7.719,3.01 7.757,3.048 c 0.6,0.6 1.396,0.93 2.243,0.93 0.847,0 1.643,-0.33 2.243,-0.93 0.038,-0.039 0.076,-0.079 0.115,-0.123 0.336,0.112 0.663,0.247 0.976,0.405 -0.002,0.058 -0.004,0.114 -0.004,0.168 0,1.749 1.424,3.172 3.173,3.172 0.054,0 0.109,-0.002 0.168,-0.004 0.158,0.312 0.293,0.64 0.405,0.976 -0.045,0.038 -0.086,0.077 -0.124,0.116 -0.6,0.6 -0.93,1.396 -0.93,2.242 0,0.847 0.33,1.645 0.93,2.244 0.038,0.037 0.079,0.076 0.124,0.115 -0.112,0.336 -0.247,0.662 -0.405,0.975 M 10,5.417 c -2.528,0 -4.584,2.056 -4.584,4.583 0,2.529 2.056,4.584 4.584,4.584 2.528,0 4.584,-2.055 4.584,-4.584 0,-2.528 -2.056,-4.583 -4.584,-4.583 m 0,8.395 C 7.898,13.812 6.188,12.103 6.188,10 6.188,7.898 7.898,6.188 10,6.188 c 2.102,0 3.812,1.71 3.812,3.812 0,2.104 -1.71,3.812 -3.812,3.812" />
</svg>
