<?xml version="1.0" encoding="UTF-8" standalone="no"?>
<svg
   xmlns:dc="http://purl.org/dc/elements/1.1/"
   xmlns:cc="http://creativecommons.org/ns#"
   xmlns:rdf="http://www.w3.org/1999/02/22-rdf-syntax-ns#"
   xmlns:svg="http://www.w3.org/2000/svg"
   xmlns="http://www.w3.org/2000/svg"
   xmlns:sodipodi="http://sodipodi.sourceforge.net/DTD/sodipodi-0.dtd"
   xmlns:inkscape="http://www.inkscape.org/namespaces/inkscape"
   class="svg-icon"
   viewBox="0 0 20 20"
   version="1.1"
   id="svg889"
   sodipodi:docname="CommandPrepend.svg"
   inkscape:version="1.0beta1 (fe3e306, 2019-09-17)">
  <metadata
     id="metadata895">
    <rdf:RDF>
      <cc:Work
         rdf:about="">
        <dc:format>image/svg+xml</dc:format>
        <dc:type
           rdf:resource="http://purl.org/dc/dcmitype/StillImage" />
      </cc:Work>
    </rdf:RDF>
  </metadata>
  <defs
     id="defs893" />
  <sodipodi:namedview
     pagecolor="#ffffff"
     bordercolor="#666666"
     inkscape:document-rotation="0"
     borderopacity="1"
     objecttolerance="10"
     gridtolerance="10"
     guidetolerance="10"
     inkscape:pageopacity="0"
     inkscape:pageshadow="2"
     inkscape:window-width="1397"
     inkscape:window-height="855"
     id="namedview891"
     showgrid="true"
     inkscape:zoom="13.6"
     inkscape:cx="0.84558824"
     inkscape:cy="10"
     inkscape:window-x="43"
     inkscape:window-y="23"
     inkscape:window-maximized="1"
     inkscape:current-layer="svg889">
    <inkscape:grid
       type="xygrid"
       id="grid2104" />
  </sodipodi:namedview>
  <path
     d="m 13.366,13.795 h 4.488 c 0.247,0 0.449,-0.202 0.449,-0.449 v -2.692 c 0,-0.247 -0.202,-0.449 -0.449,-0.449 h -4.488 c -0.247,0 -0.449,0.202 -0.449,0.449 v 2.693 c 0,0.246 0.202,0.448 0.449,0.448 m 0.449,-2.692 h 3.59 v 1.794 h -3.59 z m -0.449,8.078 h 4.488 c 0.247,0 0.449,-0.202 0.449,-0.449 V 16.04 c 0,-0.247 -0.202,-0.449 -0.449,-0.449 h -4.488 c -0.247,0 -0.449,0.202 -0.449,0.449 v 2.692 c 0,0.247 0.202,0.449 0.449,0.449 m 0.449,-2.693 h 3.59 v 1.795 h -3.59 z"
     id="path887"
     inkscape:connector-curvature="0"
     sodipodi:nodetypes="cssssssscccccccssssssscccccc" />
  <g
     transform="matrix(-1,0,0,1,20,0)"
     id="g2116">
    <path
       sodipodi:nodetypes="cc"
       inkscape:connector-curvature="0"
       id="path2106"
       d="M 14,3 V 9"
       style="fill:none;stroke:#000000;stroke-width:1px;stroke-linecap:round;stroke-linejoin:miter;stroke-opacity:1" />
    <path
       sodipodi:nodetypes="cc"
       inkscape:connector-curvature="0"
       id="path2108"
       d="m 11,6 h 6"
       style="fill:none;stroke:#000000;stroke-width:1px;stroke-linecap:round;stroke-linejoin:miter;stroke-opacity:1" />
  </g>
  <circle
     transform="scale(-1,1)"
     style="fill:none;stroke:#000000;stroke-width:1;stroke-linecap:round;stroke-miterlimit:4;stroke-dasharray:none;stroke-opacity:1"
     id="path2110"
     cx="-6"
     cy="6"
     r="5" />
  <path
     style="fill:none;stroke:#000000;stroke-width:1px;stroke-linecap:butt;stroke-linejoin:miter;stroke-opacity:1"
     d="M 19,6 H 12"
     id="path2112"
     inkscape:connector-curvature="0"
     sodipodi:nodetypes="cc" />
</svg>
