<?xml version="1.0" encoding="UTF-8" standalone="no"?>
<svg
   xmlns:dc="http://purl.org/dc/elements/1.1/"
   xmlns:cc="http://creativecommons.org/ns#"
   xmlns:rdf="http://www.w3.org/1999/02/22-rdf-syntax-ns#"
   xmlns:svg="http://www.w3.org/2000/svg"
   xmlns="http://www.w3.org/2000/svg"
   xmlns:sodipodi="http://sodipodi.sourceforge.net/DTD/sodipodi-0.dtd"
   xmlns:inkscape="http://www.inkscape.org/namespaces/inkscape"
   inkscape:version="1.0beta1 (fe3e306, 2019-09-17)"
   sodipodi:docname="CommandAccept.svg"
   id="svg4"
   version="1.1"
   viewBox="0 0 20 20"
   class="svg-icon">
  <metadata
     id="metadata10">
    <rdf:RDF>
      <cc:Work
         rdf:about="">
        <dc:format>image/svg+xml</dc:format>
        <dc:type
           rdf:resource="http://purl.org/dc/dcmitype/StillImage" />
      </cc:Work>
    </rdf:RDF>
  </metadata>
  <defs
     id="defs8" />
  <sodipodi:namedview
     inkscape:current-layer="svg4"
     inkscape:window-maximized="0"
     inkscape:window-y="23"
     inkscape:window-x="44"
     inkscape:cy="10"
     inkscape:cx="0.84558824"
     inkscape:zoom="13.6"
     showgrid="false"
     id="namedview6"
     inkscape:window-height="480"
     inkscape:window-width="776"
     inkscape:pageshadow="2"
     inkscape:pageopacity="0"
     guidetolerance="10"
     gridtolerance="10"
     objecttolerance="10"
     borderopacity="1"
     inkscape:document-rotation="0"
     bordercolor="#666666"
     pagecolor="#ffffff" />
  <path
     inkscape:connector-curvature="0"
     id="path2"
     d="m 10.219,1.688 c -4.471,0 -8.094,3.623 -8.094,8.094 0,4.471 3.623,8.094 8.094,8.094 4.471,0 8.094,-3.623 8.094,-8.094 0,-4.471 -3.624,-8.094 -8.094,-8.094 m 0,15.334 c -3.994,0 -7.242,-3.247 -7.242,-7.241 0,-3.994 3.248,-7.242 7.242,-7.242 3.994,0 7.241,3.248 7.241,7.242 0,3.994 -3.247,7.241 -7.241,7.241 M 15.099,7.03 C 14.932,6.863 14.661,6.863 14.495,7.032 L 9.062,12.48 6.793,10.203 c -0.166,-0.167 -0.437,-0.167 -0.603,0 -0.166,0.166 -0.168,0.437 -0.002,0.603 l 2.573,2.578 c 0.079,0.08 0.188,0.125 0.3,0.125 0.112,0 0.222,-0.045 0.303,-0.125 L 15.1,7.633 C 15.268,7.466 15.265,7.196 15.099,7.03" />
</svg>
