<?xml version="1.0" encoding="UTF-8" standalone="no"?>
<svg
   xmlns:dc="http://purl.org/dc/elements/1.1/"
   xmlns:cc="http://creativecommons.org/ns#"
   xmlns:rdf="http://www.w3.org/1999/02/22-rdf-syntax-ns#"
   xmlns:svg="http://www.w3.org/2000/svg"
   xmlns="http://www.w3.org/2000/svg"
   xmlns:sodipodi="http://sodipodi.sourceforge.net/DTD/sodipodi-0.dtd"
   xmlns:inkscape="http://www.inkscape.org/namespaces/inkscape"
   inkscape:version="1.0beta1 (fe3e306, 2019-09-17)"
   sodipodi:docname="CommandAppend.svg"
   id="svg889"
   version="1.1"
   viewBox="0 0 20 20"
   class="svg-icon">
  <metadata
     id="metadata895">
    <rdf:RDF>
      <cc:Work
         rdf:about="">
        <dc:format>image/svg+xml</dc:format>
        <dc:type
           rdf:resource="http://purl.org/dc/dcmitype/StillImage" />
        <dc:title></dc:title>
      </cc:Work>
    </rdf:RDF>
  </metadata>
  <defs
     id="defs893" />
  <sodipodi:namedview
     inkscape:current-layer="svg889"
     inkscape:window-maximized="1"
     inkscape:window-y="23"
     inkscape:window-x="43"
     inkscape:cy="10"
     inkscape:cx="0.84558824"
     inkscape:zoom="13.6"
     showgrid="true"
     id="namedview891"
     inkscape:window-height="855"
     inkscape:window-width="1397"
     inkscape:pageshadow="2"
     inkscape:pageopacity="0"
     guidetolerance="10"
     gridtolerance="10"
     objecttolerance="10"
     borderopacity="1"
     inkscape:document-rotation="0"
     bordercolor="#666666"
     pagecolor="#ffffff">
    <inkscape:grid
       id="grid2104"
       type="xygrid" />
  </sodipodi:namedview>
  <path
     sodipodi:nodetypes="cssssssscccccccssssssscccccc"
     inkscape:connector-curvature="0"
     id="path887"
     d="M 6.634,5.886 H 2.146 c -0.247,0 -0.449,0.202 -0.449,0.449 v 2.692 c 0,0.247 0.202,0.449 0.449,0.449 h 4.488 c 0.247,0 0.449,-0.202 0.449,-0.449 V 6.334 C 7.083,6.088 6.881,5.886 6.634,5.886 M 6.185,8.578 H 2.595 V 6.784 h 3.59 z M 6.634,0.5 H 2.146 C 1.899,0.5 1.697,0.702 1.697,0.949 v 2.692 c 0,0.247 0.202,0.449 0.449,0.449 h 4.488 c 0.247,0 0.449,-0.202 0.449,-0.449 V 0.949 C 7.083,0.702 6.881,0.5 6.634,0.5 M 6.185,3.193 H 2.595 V 1.398 h 3.59 z" />
  <g
     transform="matrix(1,0,0,-1,0,19.681)"
     id="g2116">
    <path
       style="fill:none;stroke:#000000;stroke-width:1px;stroke-linecap:round;stroke-linejoin:miter;stroke-opacity:1"
       d="M 14,3 V 9"
       id="path2106"
       inkscape:connector-curvature="0"
       sodipodi:nodetypes="cc" />
    <path
       style="fill:none;stroke:#000000;stroke-width:1px;stroke-linecap:round;stroke-linejoin:miter;stroke-opacity:1"
       d="m 11,6 h 6"
       id="path2108"
       inkscape:connector-curvature="0"
       sodipodi:nodetypes="cc" />
  </g>
  <circle
     transform="scale(1,-1)"
     r="5"
     cy="-13.681"
     cx="14"
     id="path2110"
     style="fill:none;stroke:#000000;stroke-width:1;stroke-linecap:round;stroke-miterlimit:4;stroke-dasharray:none;stroke-opacity:1" />
  <path
     sodipodi:nodetypes="cc"
     inkscape:connector-curvature="0"
     id="path2112"
     d="M 1,13.681 H 8"
     style="fill:none;stroke:#000000;stroke-width:1px;stroke-linecap:butt;stroke-linejoin:miter;stroke-opacity:1" />
</svg>
