<?xml version="1.0" encoding="UTF-8" standalone="no"?>
<svg
   xmlns:dc="http://purl.org/dc/elements/1.1/"
   xmlns:cc="http://creativecommons.org/ns#"
   xmlns:rdf="http://www.w3.org/1999/02/22-rdf-syntax-ns#"
   xmlns:svg="http://www.w3.org/2000/svg"
   xmlns="http://www.w3.org/2000/svg"
   xmlns:sodipodi="http://sodipodi.sourceforge.net/DTD/sodipodi-0.dtd"
   xmlns:inkscape="http://www.inkscape.org/namespaces/inkscape"
   inkscape:version="1.0beta1 (fe3e306, 2019-09-17)"
   sodipodi:docname="CommandZoomOut.svg"
   id="svg6547"
   version="1.1"
   viewBox="0 0 20 20"
   class="svg-icon">
  <metadata
     id="metadata6553">
    <rdf:RDF>
      <cc:Work
         rdf:about="">
        <dc:format>image/svg+xml</dc:format>
        <dc:type
           rdf:resource="http://purl.org/dc/dcmitype/StillImage" />
      </cc:Work>
    </rdf:RDF>
  </metadata>
  <defs
     id="defs6551" />
  <sodipodi:namedview
     inkscape:current-layer="svg6547"
     inkscape:window-maximized="0"
     inkscape:window-y="23"
     inkscape:window-x="44"
     inkscape:cy="10"
     inkscape:cx="0.84558824"
     inkscape:zoom="13.6"
     showgrid="false"
     id="namedview6549"
     inkscape:window-height="644"
     inkscape:window-width="1041"
     inkscape:pageshadow="2"
     inkscape:pageopacity="0"
     guidetolerance="10"
     gridtolerance="10"
     objecttolerance="10"
     borderopacity="1"
     inkscape:document-rotation="0"
     bordercolor="#666666"
     pagecolor="#ffffff" />
  <path
     inkscape:connector-curvature="0"
     id="path6545"
     d="m 14.776,10 c 0,0.239 -0.195,0.434 -0.435,0.434 H 5.658 C 5.419,10.434 5.224,10.239 5.224,10 5.224,9.761 5.419,9.566 5.658,9.566 h 8.684 c 0.239,0 0.434,0.196 0.434,0.434 m 3.474,0 c 0,4.558 -3.693,8.25 -8.25,8.25 -4.557,0 -8.25,-3.691 -8.25,-8.25 0,-4.557 3.693,-8.25 8.25,-8.25 4.557,0 8.25,3.693 8.25,8.25 m -0.868,0 C 17.382,5.929 14.07,2.619 10,2.619 5.929,2.619 2.619,5.93 2.619,10 c 0,4.07 3.311,7.382 7.381,7.382 4.07,10e-4 7.382,-3.312 7.382,-7.382" />
</svg>
