<?xml version="1.0" encoding="UTF-8" standalone="no"?>
<svg
   xmlns:dc="http://purl.org/dc/elements/1.1/"
   xmlns:cc="http://creativecommons.org/ns#"
   xmlns:rdf="http://www.w3.org/1999/02/22-rdf-syntax-ns#"
   xmlns:svg="http://www.w3.org/2000/svg"
   xmlns="http://www.w3.org/2000/svg"
   xmlns:sodipodi="http://sodipodi.sourceforge.net/DTD/sodipodi-0.dtd"
   xmlns:inkscape="http://www.inkscape.org/namespaces/inkscape"
   inkscape:version="1.0beta1 (fe3e306, 2019-09-17)"
   sodipodi:docname="CommandZoomIn.svg"
   id="svg5405"
   version="1.1"
   viewBox="0 0 20 20"
   class="svg-icon">
  <metadata
     id="metadata5411">
    <rdf:RDF>
      <cc:Work
         rdf:about="">
        <dc:format>image/svg+xml</dc:format>
        <dc:type
           rdf:resource="http://purl.org/dc/dcmitype/StillImage" />
      </cc:Work>
    </rdf:RDF>
  </metadata>
  <defs
     id="defs5409" />
  <sodipodi:namedview
     inkscape:current-layer="svg5405"
     inkscape:window-maximized="0"
     inkscape:window-y="23"
     inkscape:window-x="44"
     inkscape:cy="10"
     inkscape:cx="0.84558824"
     inkscape:zoom="13.6"
     showgrid="false"
     id="namedview5407"
     inkscape:window-height="480"
     inkscape:window-width="776"
     inkscape:pageshadow="2"
     inkscape:pageopacity="0"
     guidetolerance="10"
     gridtolerance="10"
     objecttolerance="10"
     borderopacity="1"
     inkscape:document-rotation="0"
     bordercolor="#666666"
     pagecolor="#ffffff" />
  <path
     inkscape:connector-curvature="0"
     id="path5403"
     d="m 14.613,10 c 0,0.23 -0.188,0.419 -0.419,0.419 H 10.42 v 3.774 c 0,0.23 -0.189,0.42 -0.42,0.42 -0.231,0 -0.419,-0.189 -0.419,-0.42 V 10.419 H 5.806 C 5.576,10.419 5.387,10.23 5.387,10 5.387,9.77 5.576,9.581 5.806,9.581 H 9.581 V 5.806 c 0,-0.23 0.189,-0.419 0.419,-0.419 0.23,0 0.42,0.189 0.42,0.419 v 3.775 h 3.774 c 0.231,0 0.419,0.189 0.419,0.419 m 3.356,0 c 0,4.401 -3.567,7.969 -7.969,7.969 -4.402,0 -7.969,-3.567 -7.969,-7.969 0,-4.402 3.567,-7.969 7.969,-7.969 4.401,0 7.969,3.567 7.969,7.969 M 17.13,10 C 17.13,6.068 13.932,2.87 10,2.87 6.068,2.87 2.87,6.068 2.87,10 c 0,3.933 3.198,7.13 7.13,7.13 3.932,0 7.13,-3.197 7.13,-7.13" />
</svg>
