<?xml version="1.0" encoding="UTF-8" standalone="no"?>
<svg
   xmlns:dc="http://purl.org/dc/elements/1.1/"
   xmlns:cc="http://creativecommons.org/ns#"
   xmlns:rdf="http://www.w3.org/1999/02/22-rdf-syntax-ns#"
   xmlns:svg="http://www.w3.org/2000/svg"
   xmlns="http://www.w3.org/2000/svg"
   xmlns:sodipodi="http://sodipodi.sourceforge.net/DTD/sodipodi-0.dtd"
   xmlns:inkscape="http://www.inkscape.org/namespaces/inkscape"
   inkscape:version="1.0beta1 (fe3e306, 2019-09-17)"
   sodipodi:docname="CommandEdit.svg"
   id="svg1408"
   version="1.1"
   viewBox="0 0 20 20"
   class="svg-icon">
  <metadata
     id="metadata1414">
    <rdf:RDF>
      <cc:Work
         rdf:about="">
        <dc:format>image/svg+xml</dc:format>
        <dc:type
           rdf:resource="http://purl.org/dc/dcmitype/StillImage" />
      </cc:Work>
    </rdf:RDF>
  </metadata>
  <defs
     id="defs1412" />
  <sodipodi:namedview
     inkscape:current-layer="svg1408"
     inkscape:window-maximized="0"
     inkscape:window-y="23"
     inkscape:window-x="44"
     inkscape:cy="10"
     inkscape:cx="0.84558824"
     inkscape:zoom="13.6"
     showgrid="false"
     id="namedview1410"
     inkscape:window-height="480"
     inkscape:window-width="776"
     inkscape:pageshadow="2"
     inkscape:pageopacity="0"
     guidetolerance="10"
     gridtolerance="10"
     objecttolerance="10"
     borderopacity="1"
     inkscape:document-rotation="0"
     bordercolor="#666666"
     pagecolor="#ffffff" />
  <path
     inkscape:connector-curvature="0"
     id="path1406"
     d="M 18.303,4.742 16.849,3.287 c -0.171,-0.171 -0.475,-0.171 -0.646,0 L 13.142,6.351 H 2.019 c -0.251,0 -0.457,0.205 -0.457,0.456 v 9.578 c 0,0.251 0.206,0.456 0.457,0.456 h 13.683 c 0.252,0 0.457,-0.205 0.457,-0.456 V 7.533 l 2.144,-2.146 c 0.178,-0.179 0.18,-0.47 0,-0.645 M 15.258,15.929 H 2.476 V 7.263 H 12.23 L 9.695,9.792 C 9.638,9.849 9.594,9.922 9.576,10.004 L 9.18,11.36 H 5.2 c -0.251,0 -0.457,0.205 -0.457,0.456 0,0.253 0.205,0.456 0.457,0.456 h 4.336 c 0.023,0 0.899,0.02 1.498,-0.127 0.312,-0.077 0.55,-0.137 0.55,-0.137 0.08,-0.018 0.155,-0.059 0.212,-0.118 l 3.463,-3.443 v 7.482 z m -4.017,-4.773 -1.078,0.267 0.267,-1.076 6.097,-6.091 0.808,0.808 z" />
</svg>
