<?xml version="1.0" encoding="UTF-8" standalone="no"?>
<svg
   xmlns:dc="http://purl.org/dc/elements/1.1/"
   xmlns:cc="http://creativecommons.org/ns#"
   xmlns:rdf="http://www.w3.org/1999/02/22-rdf-syntax-ns#"
   xmlns:svg="http://www.w3.org/2000/svg"
   xmlns="http://www.w3.org/2000/svg"
   xmlns:sodipodi="http://sodipodi.sourceforge.net/DTD/sodipodi-0.dtd"
   xmlns:inkscape="http://www.inkscape.org/namespaces/inkscape"
   inkscape:version="1.0beta1 (fe3e306, 2019-09-17)"
   sodipodi:docname="CommandSave.svg"
   id="svg4"
   version="1.1"
   viewBox="0 0 20 20"
   class="svg-icon">
  <metadata
     id="metadata10">
    <rdf:RDF>
      <cc:Work
         rdf:about="">
        <dc:format>image/svg+xml</dc:format>
        <dc:type
           rdf:resource="http://purl.org/dc/dcmitype/StillImage" />
      </cc:Work>
    </rdf:RDF>
  </metadata>
  <defs
     id="defs8" />
  <sodipodi:namedview
     inkscape:current-layer="svg4"
     inkscape:window-maximized="0"
     inkscape:window-y="23"
     inkscape:window-x="44"
     inkscape:cy="10"
     inkscape:cx="0.84558824"
     inkscape:zoom="13.6"
     showgrid="false"
     id="namedview6"
     inkscape:window-height="698"
     inkscape:window-width="1208"
     inkscape:pageshadow="2"
     inkscape:pageopacity="0"
     guidetolerance="10"
     gridtolerance="10"
     objecttolerance="10"
     borderopacity="1"
     inkscape:document-rotation="0"
     bordercolor="#666666"
     pagecolor="#ffffff" />
  <path
     inkscape:connector-curvature="0"
     id="path2"
     d="M 17.064,4.656 15.014,2.621 C 14.936,2.544 14.831,2.5 14.721,2.5 H 3.854 C 3.625,2.5 3.437,2.688 3.437,2.917 v 14.167 c 0,0.229 0.188,0.417 0.417,0.417 h 12.917 c 0.229,0 0.416,-0.188 0.416,-0.417 V 4.952 C 17.188,4.84 17.144,4.733 17.064,4.656 M 6.354,3.333 h 7.917 V 10 H 6.354 Z m 10,13.334 H 4.271 V 3.333 h 1.25 v 7.083 c 0,0.229 0.188,0.417 0.417,0.417 h 8.75 c 0.229,0 0.416,-0.188 0.416,-0.417 v -6.53 l 1.25,1.239 z M 13.402,4.688 v 3.958 c 0,0.229 -0.186,0.417 -0.417,0.417 -0.229,0 -0.417,-0.188 -0.417,-0.417 V 4.688 c 0,-0.229 0.188,-0.417 0.417,-0.417 0.232,0 0.417,0.187 0.417,0.417" />
</svg>
