<?xml version="1.0" encoding="UTF-8" standalone="no"?>
<svg
   xmlns:dc="http://purl.org/dc/elements/1.1/"
   xmlns:cc="http://creativecommons.org/ns#"
   xmlns:rdf="http://www.w3.org/1999/02/22-rdf-syntax-ns#"
   xmlns:svg="http://www.w3.org/2000/svg"
   xmlns="http://www.w3.org/2000/svg"
   xmlns:sodipodi="http://sodipodi.sourceforge.net/DTD/sodipodi-0.dtd"
   xmlns:inkscape="http://www.inkscape.org/namespaces/inkscape"
   inkscape:version="1.0beta1 (fe3e306, 2019-09-17)"
   sodipodi:docname="CommandViewDetail.svg"
   id="svg2802"
   version="1.1"
   viewBox="0 0 20 20"
   class="svg-icon">
  <metadata
     id="metadata2808">
    <rdf:RDF>
      <cc:Work
         rdf:about="">
        <dc:format>image/svg+xml</dc:format>
        <dc:type
           rdf:resource="http://purl.org/dc/dcmitype/StillImage" />
      </cc:Work>
    </rdf:RDF>
  </metadata>
  <defs
     id="defs2806" />
  <sodipodi:namedview
     inkscape:current-layer="svg2802"
     inkscape:window-maximized="0"
     inkscape:window-y="23"
     inkscape:window-x="43"
     inkscape:cy="10"
     inkscape:cx="0.84558824"
     inkscape:zoom="13.6"
     showgrid="false"
     id="namedview2804"
     inkscape:window-height="480"
     inkscape:window-width="776"
     inkscape:pageshadow="2"
     inkscape:pageopacity="0"
     guidetolerance="10"
     gridtolerance="10"
     objecttolerance="10"
     borderopacity="1"
     inkscape:document-rotation="0"
     bordercolor="#666666"
     pagecolor="#ffffff" />
  <path
     inkscape:connector-curvature="0"
     id="path2800"
     d="m 10,1.445 c -4.726,0 -8.555,3.829 -8.555,8.555 0,4.725 3.829,8.555 8.555,8.555 4.725,0 8.555,-3.83 8.555,-8.555 0,-4.726 -3.83,-8.555 -8.555,-8.555 m 0,16.209 C 5.779,17.654 2.346,14.22 2.346,10 2.346,5.779 5.779,2.346 10,2.346 c 4.222,0 7.654,3.433 7.654,7.654 0,4.221 -3.432,7.654 -7.654,7.654 M 14.39,10 c 0,0.248 -0.203,0.45 -0.45,0.45 H 6.06 C 5.812,10.45 5.61,10.247 5.61,10 5.61,9.753 5.813,9.55 6.06,9.55 h 7.879 c 0.248,0 0.451,0.202 0.451,0.45 m 0,2.702 c 0,0.247 -0.203,0.449 -0.45,0.449 H 6.06 c -0.248,0 -0.45,-0.202 -0.45,-0.449 0,-0.248 0.203,-0.451 0.45,-0.451 h 7.879 c 0.248,0 0.451,0.203 0.451,0.451 m 0,-5.404 c 0,0.248 -0.203,0.45 -0.45,0.45 H 6.06 c -0.248,0 -0.45,-0.203 -0.45,-0.45 0,-0.247 0.203,-0.45 0.45,-0.45 h 7.879 c 0.248,0 0.451,0.203 0.451,0.45" />
</svg>
