<?xml version="1.0" encoding="UTF-8" standalone="no"?>
<svg
   xmlns:dc="http://purl.org/dc/elements/1.1/"
   xmlns:cc="http://creativecommons.org/ns#"
   xmlns:rdf="http://www.w3.org/1999/02/22-rdf-syntax-ns#"
   xmlns:svg="http://www.w3.org/2000/svg"
   xmlns="http://www.w3.org/2000/svg"
   xmlns:sodipodi="http://sodipodi.sourceforge.net/DTD/sodipodi-0.dtd"
   xmlns:inkscape="http://www.inkscape.org/namespaces/inkscape"
   inkscape:version="1.0.1 (c497b03c, 2020-09-10)"
   sodipodi:docname="CommandInsertBefore.svg"
   id="svg889"
   version="1.1"
   viewBox="0 0 20 20"
   class="svg-icon">
  <metadata
     id="metadata895">
    <rdf:RDF>
      <cc:Work
         rdf:about="">
        <dc:format>image/svg+xml</dc:format>
        <dc:type
           rdf:resource="http://purl.org/dc/dcmitype/StillImage" />
        <dc:title />
      </cc:Work>
    </rdf:RDF>
  </metadata>
  <defs
     id="defs893" />
  <sodipodi:namedview
     inkscape:current-layer="svg889"
     inkscape:window-maximized="0"
     inkscape:window-y="25"
     inkscape:window-x="55"
     inkscape:cy="7.3879613"
     inkscape:cx="-0.97056274"
     inkscape:zoom="12.993087"
     showgrid="true"
     id="namedview891"
     inkscape:window-height="943"
     inkscape:window-width="1251"
     inkscape:pageshadow="2"
     inkscape:pageopacity="0"
     guidetolerance="10"
     gridtolerance="10"
     objecttolerance="10"
     borderopacity="1"
     inkscape:document-rotation="0"
     bordercolor="#666666"
     pagecolor="#ffffff">
    <inkscape:grid
       id="grid2104"
       type="xygrid" />
  </sodipodi:namedview>
  <path
     sodipodi:nodetypes="cssssssscccccc"
     inkscape:connector-curvature="0"
     id="path887"
     d="m 18.244,15.450312 h -4.488 c -0.247,0 -0.449,0.202 -0.449,0.449 v 2.692 c 0,0.247 0.202,0.449 0.449,0.449 h 4.488 c 0.247,0 0.449,-0.202 0.449,-0.449 v -2.692 c 0,-0.247 -0.202,-0.449 -0.449,-0.449 m -0.449,2.693 h -3.59 v -1.795 h 3.59 z"
     style="stroke-width:1" />
  <path
     sodipodi:nodetypes="cc"
     inkscape:connector-curvature="0"
     id="path2112"
     d="m 12.5,6.1313124 h 7"
     style="fill:none;stroke:#000000;stroke-width:1px;stroke-linecap:butt;stroke-linejoin:miter;stroke-opacity:1" />
  <path
     sodipodi:nodetypes="cssssssscccccc"
     inkscape:connector-curvature="0"
     id="path969"
     d="m 18.244,9.6503124 h -4.488 c -0.247,0 -0.449,0.202 -0.449,0.4489996 v 2.692 c 0,0.247 0.202,0.449 0.449,0.449 h 4.488 c 0.247,0 0.449,-0.202 0.449,-0.449 v -2.692 c 0,-0.2469996 -0.202,-0.4489996 -0.449,-0.4489996 m -0.449,2.6929996 h -3.59 v -1.795 h 3.59 z" />
  <path
     style="fill:none;stroke:#000000;stroke-width:1px;stroke-linecap:butt;stroke-linejoin:miter;stroke-opacity:1"
     d="M 11,6.1313124 6,10.131312 V 8.1313124 H 1 v -4 h 5 v -2 z"
     id="path975" />
</svg>
